<?xml version="1.0" encoding="UTF-8"?>
<svg version="1.1" xmlns="http://www.w3.org/2000/svg" width="1024" height="1024">
<path d="M0 0 C337.92 0 675.84 0 1024 0 C1024 337.92 1024 675.84 1024 1024 C686.08 1024 348.16 1024 0 1024 C0 686.08 0 348.16 0 0 Z " fill="#FDFDFD" transform="translate(0,0)"/>
<path d="M0 0 C2.48740899 2.99890064 3.75787244 5.7103397 4.9453125 9.41015625 C5.29513184 10.47306885 5.64495117 11.53598145 6.00537109 12.63110352 C6.37484863 13.76346436 6.74432617 14.8958252 7.125 16.0625 C15.88351181 41.99593404 28.49409333 63.87443936 47.23242188 83.8918457 C49.66027063 86.48966144 51.93438084 89.10401566 54 92 C48.27021405 92.19205986 43.45201417 91.63333462 37.9375 90.125 C37.26912109 89.95097656 36.60074219 89.77695312 35.91210938 89.59765625 C31.58951364 88.46344746 27.29342859 87.23945533 23 86 C24.86754364 106.12373557 36.1171208 122.86607416 50 137 C50.59941406 137.61230469 51.19882812 138.22460938 51.81640625 138.85546875 C59.15893447 145.78567357 76.67865485 159 87 159 C86.36835938 158.64550781 85.73671875 158.29101562 85.0859375 157.92578125 C69.06528032 148.39187431 55.9579807 134.30600174 47 118 C52.37109375 116.6328125 52.37109375 116.6328125 55 116 C55.60674561 115.85344971 56.21349121 115.70689941 56.83862305 115.5559082 C63.48697958 114.009408 70.19124854 112.95895316 76.9375 111.9375 C78.05318359 111.76412109 79.16886719 111.59074219 80.31835938 111.41210938 C86.88835272 110.40755855 93.36674311 109.66332569 100 109 C100 127.48 100 145.96 100 165 C101.98 165.66 103.96 166.32 106 167 C111.94 169.475 111.94 169.475 118 172 C118 144.28 118 116.56 118 88 C125.87432519 84.6252892 125.87432519 84.6252892 128.82958984 83.82080078 C129.49493744 83.63695831 130.16028503 83.45311584 130.84579468 83.26370239 C131.54379181 83.07613373 132.24178894 82.88856506 132.9609375 82.6953125 C133.70977203 82.48945526 134.45860657 82.28359802 135.23013306 82.07150269 C137.61049794 81.41796562 139.9926145 80.77112815 142.375 80.125 C145.48761523 79.2757516 148.59931983 78.4232072 151.7109375 77.5703125 C152.47742615 77.36150452 153.24391479 77.15269653 154.03363037 76.93756104 C157.96389718 75.86085914 161.87823687 74.74713401 165.77832031 73.56542969 C166.93130112 73.21724686 166.93130112 73.21724686 168.10757446 72.86203003 C169.5614446 72.41994326 171.01355257 71.9720019 172.46347046 71.51712036 C176.25617343 70.36351942 178.94343609 70 183 70 C183 107.95 183 145.9 183 185 C228.06441622 176.27785493 267.83153712 164.19017732 302 133 C302.49951172 132.5457666 302.99902344 132.0915332 303.51367188 131.62353516 C316.48097158 119.66377272 326.87118222 105.59127983 334.98242188 89.95751953 C335.98353456 88.03167464 337.0132926 86.12341393 338.046875 84.21484375 C347.46914734 66.48507875 353.17656695 47.64664941 357 28 C357.27384521 26.6224353 357.27384521 26.6224353 357.55322266 25.21704102 C358.63562118 19.57282651 359.36037589 14.05153546 359.625 8.3125 C359.66367187 7.59900391 359.70234375 6.88550781 359.7421875 6.15039062 C359.83434718 4.43391652 359.9181357 2.71699592 360 1 C362.74850265 2.37425133 363.000356 3.86670995 364.20703125 6.671875 C364.8402832 8.13560547 364.8402832 8.13560547 365.48632812 9.62890625 C365.92396484 10.65886719 366.36160156 11.68882812 366.8125 12.75 C367.23853516 13.73355469 367.66457031 14.71710938 368.10351562 15.73046875 C369.42723503 18.81046943 370.71898426 21.90200884 372 25 C372.63832764 26.52101318 372.63832764 26.52101318 373.28955078 28.07275391 C376.54855518 36.13186174 378.76657231 44.25200142 380.74023438 52.6953125 C381.25481841 54.89560288 381.78257839 57.09242055 382.3125 59.2890625 C384.81872858 69.7903759 386.18111168 79.52263464 386.1875 90.3125 C386.19974609 91.38951172 386.21199219 92.46652344 386.22460938 93.57617188 C386.23681529 100.29349565 385.61435001 106.47583079 384 113 C383.49847412 112.61102539 382.99694824 112.22205078 382.48022461 111.82128906 C376.36732837 107.10279582 369.92110275 102.46055138 363 99 C362.86464844 99.69222656 362.72929688 100.38445312 362.58984375 101.09765625 C358.47391975 119.80416116 348.19554488 137.29034299 335 151 C333.88946324 152.30711453 332.78500822 153.61942717 331.6875 154.9375 C308.13270618 181.71162783 273.7384981 196.84947483 242 211.5 C209.29504089 226.30003443 209.29504089 226.30003443 181 248 C177.61919619 246.54027934 175.52411336 244.65850216 172.9375 242.0625 C154.85676236 225.63022325 128.93334106 216.00201362 106.875 206 C79.23062179 193.41157745 54.27716477 178.73710354 32 158 C31.26007813 157.32582031 30.52015625 156.65164063 29.7578125 155.95703125 C14.93684306 141.90084493 3.3735855 122.73915077 -2 103 C-2 101.68 -2 100.36 -2 99 C-8.2426897 102.13642381 -13.56583886 105.85919604 -18.93359375 110.328125 C-21 112 -21 112 -23 113 C-24.58260965 108.79398306 -25.25594914 105.30358454 -25.265625 100.81640625 C-25.27005615 99.64964355 -25.2744873 98.48288086 -25.27905273 97.28076172 C-25.26946533 96.05373535 -25.25987793 94.82670898 -25.25 93.5625 C-25.24105713 92.29422363 -25.23211426 91.02594727 -25.22290039 89.71923828 C-24.94131307 67.0025826 -19.40230247 45.10345736 -11 24 C-10.60167969 22.98421875 -10.20335937 21.9684375 -9.79296875 20.921875 C-6.89926303 13.75650845 -3.54212812 6.86515553 0 0 Z " fill="#02274D" transform="translate(332,407)"/>
<path d="M0 0 C0.87325928 0.00572021 1.74651855 0.01144043 2.64624023 0.01733398 C10.27755215 0.22640138 16.48258427 1.89193262 23.25 5.5 C24.21292969 6.00789062 25.17585937 6.51578125 26.16796875 7.0390625 C38.25480423 14.07443432 46.65044411 24.82325111 50.39453125 38.34375 C51.37891748 42.54320042 51.55849495 46.57488393 51.5 50.875 C51.48658569 51.99406738 51.48658569 51.99406738 51.47290039 53.13574219 C51.18415107 66.90594294 46.73794255 78.60334629 37.0703125 88.76953125 C30.68785965 94.83697033 30.68785965 94.83697033 27.25 96.5 C23.39340557 95.91787254 21.48453522 94.65635681 18.25 92.5 C18.4665625 94.29244141 18.4665625 94.29244141 18.6875 96.12109375 C18.87527043 97.72653089 19.0627551 99.33200148 19.25 100.9375 C19.34539062 101.72060547 19.44078125 102.50371094 19.5390625 103.31054688 C19.62929688 104.09365234 19.71953125 104.87675781 19.8125 105.68359375 C19.89628906 106.39056396 19.98007812 107.09753418 20.06640625 107.82592773 C20.3335617 111.71708952 20.28332478 115.60129876 20.25 119.5 C27.38483696 119.93016149 34.51986352 120.35706616 41.6550293 120.78173828 C44.08085513 120.92650087 46.50663708 121.07200098 48.93237305 121.21826172 C52.42485375 121.42871249 55.9174852 121.63648526 59.41015625 121.84375 C60.48959 121.90937134 61.56902374 121.97499268 62.6811676 122.04260254 C73.39254195 123.11179755 73.39254195 123.11179755 83.375 120.0625 C88.92163544 116.95248556 93.86353935 115.9297803 100.25 116.5 C103.00329021 118.29562405 104.77627461 119.55254922 106.25 122.5 C106.54868306 126.93163261 106.52811301 131.37199322 106.5625 135.8125 C106.59150391 137.04935547 106.62050781 138.28621094 106.65039062 139.56054688 C106.65876953 140.75357422 106.66714844 141.94660156 106.67578125 143.17578125 C106.69765503 144.8141394 106.69765503 144.8141394 106.7199707 146.4855957 C106.14184704 150.19369592 104.83368018 151.83154986 102.25 154.5 C98.26332782 156.49333609 93.5820672 156.03370159 89.25 155.5 C86.86328125 154.3828125 86.86328125 154.3828125 84.5625 153 C80.27818898 150.60004166 77.12147124 150.20204865 72.23046875 150.28125 C71.19968201 150.2953894 71.19968201 150.2953894 70.14807129 150.30981445 C60.84120627 150.4780077 51.54359556 150.99973059 42.25 151.5 C40.39585303 151.59673246 38.5416864 151.69308877 36.6875 151.7890625 C32.20809562 152.02172166 27.72898536 152.2594145 23.25 152.5 C23.30672882 153.06636169 23.36345764 153.63272339 23.42190552 154.21624756 C24.38835469 163.90066345 25.23100261 173.57786132 25.7578125 183.296875 C25.79929413 184.05929001 25.84077576 184.82170502 25.8835144 185.60722351 C26.08791207 189.41257414 26.28189735 193.2181952 26.46435547 197.0246582 C26.89666059 205.61651194 27.76399897 214.01773701 29.25 222.5 C30.34102505 229.17244749 30.35116032 235.75597899 30.25 242.5 C27.16677396 243.31290751 24.08340049 244.12525444 21 244.9375 C19.69095703 245.28264648 19.69095703 245.28264648 18.35546875 245.63476562 C17.51113281 245.85712891 16.66679688 246.07949219 15.796875 246.30859375 C15.02182617 246.51282959 14.24677734 246.71706543 13.44824219 246.92749023 C11.38551525 247.46470644 9.3178932 247.9830267 7.25 248.5 C6.92 252.13 6.59 255.76 6.25 259.5 C3.43339178 256.68339178 3.9161292 253.95781255 3.87109375 250.18359375 C3.85409927 249.45310318 3.8371048 248.72261261 3.81959534 247.96998596 C3.76640216 245.6259129 3.7262238 243.28185312 3.6875 240.9375 C3.64325688 238.61824155 3.59614258 236.2991057 3.54469299 233.97999573 C3.51331089 232.53749274 3.48625623 231.09488612 3.46446228 229.65220642 C3.36132027 224.50215165 2.82510506 219.67594551 2.25 214.5 C1.755 204.105 1.755 204.105 1.25 193.5 C0.59 223.2 -0.07 252.9 -0.75 283.5 C-6.36 285.15 -11.97 286.8 -17.75 288.5 C-21.03130859 289.48226562 -21.03130859 289.48226562 -24.37890625 290.484375 C-26.35675372 291.07297418 -28.33461785 291.66151738 -30.3125 292.25 C-31.31345703 292.55292969 -32.31441406 292.85585938 -33.34570312 293.16796875 C-38.83706488 294.79263199 -44.04350439 295.98431193 -49.75 296.5 C-48.95335937 294.92412109 -48.95335937 294.92412109 -48.140625 293.31640625 C-47.42697325 291.8984929 -46.71343785 290.48052098 -46 289.0625 C-45.65195312 288.37478516 -45.30390625 287.68707031 -44.9453125 286.97851562 C-43.86428493 284.82646999 -42.80326792 282.6657596 -41.75 280.5 C-41.40332275 279.79842773 -41.05664551 279.09685547 -40.69946289 278.37402344 C-37.8336885 272.30757615 -36.19961661 266.14625762 -34.6875 259.625 C-34.32301758 258.13613281 -34.32301758 258.13613281 -33.95117188 256.6171875 C-30.11250132 240.40720468 -28.20637924 223.93803484 -26.6875 207.375 C-26.60350952 206.48121643 -26.51951904 205.58743286 -26.4329834 204.66656494 C-24.80369495 187.29942854 -23.63558057 169.92001784 -22.75 152.5 C-23.3891333 152.47494385 -24.0282666 152.4498877 -24.68676758 152.42407227 C-27.64546745 152.30642853 -30.60397594 152.18448222 -33.5625 152.0625 C-34.56732422 152.02318359 -35.57214844 151.98386719 -36.60742188 151.94335938 C-41.52542376 151.73778373 -46.41312952 151.46422601 -51.3125 150.984375 C-56.85765906 150.45453194 -62.36874228 150.24595442 -67.9375 150.1875 C-68.87013672 150.15849609 -69.80277344 150.12949219 -70.76367188 150.09960938 C-76.31633958 150.04888226 -80.18936562 150.67659851 -84.98950195 153.53833008 C-88.36060473 155.37979088 -91.89281457 155.74454989 -95.6875 155.9375 C-96.52152344 155.99808594 -97.35554688 156.05867187 -98.21484375 156.12109375 C-101.2443102 155.37889781 -102.89318931 154.16265588 -104.77075195 151.66870117 C-106.98877304 146.7565393 -106.45909079 141.22120442 -106.375 135.9375 C-106.39433594 134.71869141 -106.41367187 133.49988281 -106.43359375 132.24414062 C-106.37926936 122.34080395 -106.37926936 122.34080395 -103.2734375 119.22265625 C-102.44070313 118.65417969 -101.60796875 118.08570313 -100.75 117.5 C-100.255 117.005 -100.255 117.005 -99.75 116.5 C-92.50660415 115.92512731 -87.25216058 117.28762304 -80.75 120.5 C-80.255 120.995 -80.255 120.995 -79.75 121.5 C-76.65578378 121.63576663 -73.59561071 121.68961431 -70.5 121.6875 C-69.5195874 121.68814453 -68.5391748 121.68878906 -67.52905273 121.68945312 C-51.5872682 121.58361555 -35.65846323 120.46345046 -19.75 119.5 C-19.58230147 117.13425958 -19.41734447 114.76837924 -19.25390625 112.40234375 C-19.20673462 111.74085327 -19.15956299 111.07936279 -19.11096191 110.39782715 C-18.72476542 104.7572802 -18.64427277 99.15053282 -18.75 93.5 C-19.4925 94.015625 -20.235 94.53125 -21 95.0625 C-23.75 96.5 -23.75 96.5 -25.5546875 96.40234375 C-28.78257378 95.0755791 -31.10878341 92.85206416 -33.625 90.5 C-34.15802734 90.0037915 -34.69105469 89.50758301 -35.24023438 88.99633789 C-44.42081172 80.23012259 -50.50816095 69.06552811 -50.953125 56.20703125 C-51.23222581 38.8798172 -47.52745595 26.86264279 -35.4375 13.89453125 C-25.55925459 5.09312945 -13.22226176 -0.1016998 0 0 Z " fill="#03284D" transform="translate(511.75,178.5)"/>
<path d="M0 0 C0 44.22 0 88.44 0 134 C-14.0635505 141.67102755 -27.10249792 148.6232663 -42 154 C-43.08595459 154.39638672 -43.08595459 154.39638672 -44.19384766 154.80078125 C-51.2015474 157.33427177 -57.50911248 159.06363906 -65 160 C-65 111.82 -65 63.64 -65 14 C-3.16666667 0 -3.16666667 0 0 0 Z " fill="#019D38" transform="translate(599,424)"/>
<path d="M0 0 C0.95475174 71.181505 0.95475174 71.181505 -8 101 C-8.21817383 101.74507813 -8.43634766 102.49015625 -8.66113281 103.2578125 C-17.0209649 131.4553002 -34.90183977 158.58040464 -57 178 C-58.98 178.99 -58.98 178.99 -61 180 C-61 126.54 -61 73.08 -61 18 C-56.05 16.68 -51.1 15.36 -46 14 C-43.32164346 13.03174521 -40.65243138 12.03716868 -38 11 C-34.84949291 9.98634653 -31.67599766 9.05524232 -28.5 8.125 C-21.25816453 5.9831248 -14.03855233 3.78684724 -6.84960938 1.47314453 C-2.2145045 0 -2.2145045 0 0 0 Z " fill="#019E39" transform="translate(679,362)"/>
<path d="M0 0 C6.91428393 4.87774915 12.89568735 10.61415703 15 19 C16.3170229 28.65002442 16.43352471 38.34923323 10.89453125 46.703125 C4.72353178 54.18466663 -2.19755488 60.20755035 -12.15380859 61.21875 C-24.07413041 61.99833369 -32.91358401 61.38923368 -42.3125 53.5625 C-48.41094662 47.86335643 -52.92165748 42.06015277 -53.46875 33.51171875 C-53.50294675 31.90397574 -53.51266818 30.29555676 -53.5 28.6875 C-53.49427979 27.84735352 -53.48855957 27.00720703 -53.48266602 26.14160156 C-53.23188455 17.42420154 -50.61356112 11.66214404 -44.8125 5.1875 C-33.21185229 -5.57362716 -13.78337206 -7.89140592 0 0 Z " fill="#04294E" transform="translate(608,716)"/>
<path d="M0 0 C8.17673886 6.1652849 13.11305121 12.12422936 16 22 C17.42650919 33.32977495 14.78218875 41.61442633 7.99609375 50.67578125 C2.67243087 56.87456679 -4.25465271 60.1689387 -12.31567383 61.33496094 C-24.13833778 62.20429294 -33.71143635 61.08507169 -43.10546875 53.2421875 C-49.90898009 46.30811838 -53.24883915 37.49393267 -53.5625 27.875 C-53.17803535 18.6883184 -50.44353772 11.5583909 -44.1328125 4.82421875 C-32.61640879 -5.02589212 -13.28692952 -8.52369063 0 0 Z " fill="#05294E" transform="translate(312,716)"/>
<path d="M0 0 C9.3740625 -0.12375 9.3740625 -0.12375 18.9375 -0.25 C20.89163818 -0.28641602 22.84577637 -0.32283203 24.85913086 -0.36035156 C26.43602404 -0.37205158 28.01292946 -0.38224028 29.58984375 -0.390625 C30.38588013 -0.41108887 31.1819165 -0.43155273 32.0020752 -0.45263672 C38.99847515 -0.4569139 45.04398447 1.42321015 50.375 6.0703125 C50.91125 6.74835937 51.4475 7.42640625 52 8.125 C52.556875 8.80820312 53.11375 9.49140625 53.6875 10.1953125 C56.37088439 13.88496603 56.19660852 16.71172427 56.25 21.25 C56.27578125 22.55453125 56.3015625 23.8590625 56.328125 25.203125 C55.85882874 30.63355311 53.94439068 34.51104634 50 38.25 C49.505 38.72953125 49.01 39.2090625 48.5 39.703125 C47 41 47 41 44 43 C44.63615234 43.85549438 44.63615234 43.85549438 45.28515625 44.72827148 C47.19256408 47.29619787 49.09632576 49.86680476 51 52.4375 C51.66773438 53.33533203 52.33546875 54.23316406 53.0234375 55.15820312 C53.65507812 56.01220703 54.28671875 56.86621094 54.9375 57.74609375 C55.52402344 58.53685303 56.11054688 59.3276123 56.71484375 60.14233398 C58 62 58 62 58 63 C42.83765958 65.08110555 42.83765958 65.08110555 38.21435547 61.69042969 C34.74359682 57.91079013 32.40794745 53.50026542 30 49 C28.77503104 46.5852961 28.77503104 46.5852961 27 45 C22.99008424 44.16258787 19.11135713 44.17683256 15 44 C15 50.6 15 57.2 15 64 C10.05 64 5.1 64 0 64 C0 42.88 0 21.76 0 0 Z " fill="#06294E" transform="translate(343,713)"/>
<path d="M0 0 C15 0 15 0 18.30078125 2.38671875 C19.29658203 4.02060547 19.29658203 4.02060547 20.3125 5.6875 C21.08854216 6.87324871 21.86592976 8.05811776 22.64453125 9.2421875 C23.02432129 9.85803711 23.40411133 10.47388672 23.79541016 11.10839844 C25.84032712 14.31958948 28.17445762 17.30186199 30.5 20.3125 C30.92192627 20.88121826 31.34385254 21.44993652 31.77856445 22.03588867 C32.80410141 23.39506698 33.8964666 24.70334825 35 26 C35.66 26 36.32 26 37 26 C38.39693558 24.53649787 38.39693558 24.53649787 39.79296875 22.59765625 C40.33687256 21.87570068 40.88077637 21.15374512 41.44116211 20.40991211 C42.01745361 19.63526611 42.59374512 18.86062012 43.1875 18.0625 C43.78119385 17.28720947 44.3748877 16.51191895 44.98657227 15.71313477 C47.44429198 12.4938491 49.80244042 9.32203818 51.921875 5.8671875 C53.4375 3.4375 53.4375 3.4375 57 0 C61.62 0 66.24 0 71 0 C71 20.79 71 41.58 71 63 C66.05 63 61.1 63 56 63 C55.67 50.79 55.34 38.58 55 26 C52.03 29.63 49.06 33.26 46 37 C43 40.66666667 40 44.33333333 37 48 C33.84987749 47.71033356 32.91584293 46.91316457 30.66796875 44.59375 C29.44013672 43.06234375 29.44013672 43.06234375 28.1875 41.5 C27.37667969 40.4996875 26.56585937 39.499375 25.73046875 38.46875 C22.46956794 34.32614639 19.23673304 30.16151391 16 26 C15.67 38.21 15.34 50.42 15 63 C10.05 63 5.1 63 0 63 C0 42.21 0 21.42 0 0 Z " fill="#02264B" transform="translate(639,713)"/>
<path d="M0 0 C6.27 -0.0825 12.54 -0.165 19 -0.25 C20.96324219 -0.28641602 22.92648438 -0.32283203 24.94921875 -0.36035156 C26.52863476 -0.3720486 28.10806295 -0.38223801 29.6875 -0.390625 C30.88922852 -0.4213208 30.88922852 -0.4213208 32.11523438 -0.45263672 C38.92421404 -0.45679869 44.0639668 1.47317003 49.2421875 5.9296875 C54.75675748 12.49967757 56.49191469 17.63838568 56.31640625 26.25 C55.69030361 31.69168221 53.15209886 35.36476291 50.0625 39.75 C39.60121246 47.43584391 27.32198834 46.35458959 15 46 C15 51.94 15 57.88 15 64 C10.05 64 5.1 64 0 64 C0 42.88 0 21.76 0 0 Z " fill="#04284D" transform="translate(192,713)"/>
<path d="M0 0 C14 0 14 0 18.0625 4 C19.38160875 5.99564735 20.69314062 7.9963097 22 10 C24.08912269 12.69275659 26.26474108 15.31204386 28.4375 17.9375 C29.47894697 19.21656737 30.51930499 20.49652214 31.55859375 21.77734375 C35.69869221 26.85730565 39.85016959 31.92798505 44 37 C44.33 24.79 44.66 12.58 45 0 C49.95 0 54.9 0 60 0 C60 20.79 60 41.58 60 63 C46 63 46 63 42.17578125 59.95703125 C41.17670523 58.60745754 40.22300538 57.22334444 39.3125 55.8125 C38.2465774 54.3385507 37.17883939 52.86591272 36.109375 51.39453125 C35.59310547 50.65412598 35.07683594 49.9137207 34.54492188 49.15087891 C32.23625992 45.93670195 29.66530018 42.97700612 27.0625 40 C23.141195 35.44231629 19.63136229 30.84181639 16 26 C15.67 38.21 15.34 50.42 15 63 C10.05 63 5.1 63 0 63 C0 42.21 0 21.42 0 0 Z " fill="#01254A" transform="translate(479,713)"/>
<path d="M0 0 C5.88669404 4.79941286 9.17264756 9.33950189 10.06640625 16.94921875 C10.43382154 26.31359829 9.17471018 33.23453192 2.9765625 40.3984375 C0.04771905 43.20361867 -1.63087427 44.36462143 -5.71875 44.89453125 C-8.34375 44.45703125 -8.34375 44.45703125 -9.34375 43.45703125 C-11.59106125 43.33054645 -13.84291239 43.28120572 -16.09375 43.26953125 C-17.32609375 43.25535156 -18.5584375 43.24117187 -19.828125 43.2265625 C-23.2939721 43.25590779 -23.2939721 43.25590779 -26.04296875 44.625 C-28.34375 45.45703125 -28.34375 45.45703125 -30.44140625 44.55078125 C-36.06305128 39.99087833 -40.02333541 35.43793956 -42.34375 28.45703125 C-43.11486098 20.45003008 -43.69042019 11.98226853 -38.34375 5.45703125 C-27.52609749 -6.44238651 -13.84937822 -9.11750733 0 0 Z " fill="#FAFBFC" transform="translate(528.34375,207.54296875)"/>
<path d="M0 0 C0.66 0.66 1.32 1.32 2 2 C1.62655279 5.23201584 0.18828083 7.55649103 -1.5625 10.25 C-2.01753906 10.95640625 -2.47257813 11.6628125 -2.94140625 12.390625 C-3.46541016 13.18726563 -3.46541016 13.18726563 -4 14 C-4.66 13.731875 -5.32 13.46375 -6 13.1875 C-6.99 12.795625 -7.98 12.40375 -9 12 C-9.61617187 11.73574219 -10.23234375 11.47148438 -10.8671875 11.19921875 C-17.37633823 8.52717439 -22.38806052 8.25041426 -29.125 10.5625 C-33.96463834 12.63242142 -36.75426804 15.23695918 -39 20 C-40.7194156 25.67183847 -40.80350271 30.86621996 -38.3125 36.25 C-35.91595515 40.55365448 -33.00464706 42.91640699 -28.6875 45.25 C-20.12712487 47.6389419 -11.65666418 45.03906597 -4 41 C-2.66081194 42.62017842 -1.3288031 44.24629343 0 45.875 C0.7425 46.77992188 1.485 47.68484375 2.25 48.6171875 C4 51 4 51 4 53 C2.46101439 53.79686606 0.91866216 54.58723141 -0.625 55.375 C-1.48351562 55.81585937 -2.34203125 56.25671875 -3.2265625 56.7109375 C-9.58472624 59.66614036 -14.88556791 60.36465357 -21.8125 60.375 C-23.08963867 60.41173828 -23.08963867 60.41173828 -24.39257812 60.44921875 C-33.63081866 60.49143462 -40.50456358 57.1645793 -47.2109375 50.92578125 C-54.48549985 43.09530256 -56.4482178 34.99481901 -56.23828125 24.46484375 C-55.5951218 15.1126727 -51.63409956 8.58802943 -45 2 C-31.515267 -7.74909751 -14.39668038 -7.60144724 0 0 Z " fill="#05294E" transform="translate(820,717)"/>
<path d="M0 0 C18.48 0 36.96 0 56 0 C56 4.29 56 8.58 56 13 C49.07 13 42.14 13 35 13 C35 29.83 35 46.66 35 64 C30.05 64 25.1 64 20 64 C20 47.17 20 30.34 20 13 C13.4 13 6.8 13 0 13 C0 8.71 0 4.42 0 0 Z " fill="#03264B" transform="translate(409,713)"/>
<path d="M0 0 C5.17322562 2.61384031 8.24110066 6.15341192 10.3125 11.5625 C11.22660576 17.4864722 11.23052498 22.58521543 8.6875 28.0625 C3.03558676 34.01188236 -1.29331293 37.05824902 -9.5 38 C-14.62282319 37.84267721 -18.71469187 35.70633635 -22.6875 32.5625 C-24.47190406 30.27807062 -25.47632707 28.23717355 -26.6875 25.5625 C-27.0175 24.9025 -27.3475 24.2425 -27.6875 23.5625 C-28.43367236 16.63375668 -28.39326721 10.93067906 -24.1875 5.18359375 C-17.57453899 -1.96322609 -8.89511525 -3.31121042 0 0 Z " fill="#F9FAFB" transform="translate(597.6875,726.4375)"/>
<path d="M0 0 C4.32976507 2.66892007 6.46057717 5.84927397 8.421875 10.57421875 C9.51864678 17.04517224 9.03326626 23.08332004 5.39453125 28.69140625 C1.52346312 33.20204215 -3.12049386 35.41823056 -8.953125 36.26171875 C-14.71309611 36.54441672 -19.35613397 35.60478177 -23.7109375 31.67578125 C-28.48477067 26.39458416 -30.45580865 21.7453359 -30.265625 14.6015625 C-29.54675493 9.21902286 -27.06112753 4.96181401 -23.015625 1.38671875 C-15.30521146 -3.96336411 -8.3091465 -4.08294268 0 0 Z " fill="#F9FAFB" transform="translate(303.953125,727.73828125)"/>
<path d="M0 0 C4.95 0 9.9 0 15 0 C15 21.12 15 42.24 15 64 C10.05 64 5.1 64 0 64 C0 42.88 0 21.76 0 0 Z " fill="#072A4D" transform="translate(731,713)"/>
<path d="M0 0 C3.01125 -0.0825 6.0225 -0.165 9.125 -0.25 C10.06230957 -0.28641602 10.99961914 -0.32283203 11.96533203 -0.36035156 C17.63039899 -0.43516182 20.67553897 0.26963425 25 4 C26.55024464 7.10048928 26.28992015 9.57894218 26 13 C24.20437595 15.75329021 22.94745078 17.52627461 20 19 C18.47851674 19.08372659 16.95344222 19.10730027 15.4296875 19.09765625 C14.53378906 19.09443359 13.63789063 19.09121094 12.71484375 19.08789062 C11.77769531 19.07951172 10.84054688 19.07113281 9.875 19.0625 C8.93011719 19.05798828 7.98523438 19.05347656 7.01171875 19.04882812 C4.6744523 19.03702375 2.33721831 19.01908799 0 19 C0 12.73 0 6.46 0 0 Z " fill="#F2F4F6" transform="translate(207,726)"/>
<path d="M0 0 C2.84625 -0.061875 5.6925 -0.12375 8.625 -0.1875 C9.51010254 -0.21481201 10.39520508 -0.24212402 11.30712891 -0.27026367 C16.28263308 -0.32233681 19.70417885 0.20161808 24 3 C25.59616743 6.19233485 25.51466114 9.53461497 25 13 C23.12984906 15.43119623 21.71861655 16.64069173 19 18 C17.55151418 18.08342159 16.09929131 18.10732861 14.6484375 18.09765625 C13.79765625 18.09443359 12.946875 18.09121094 12.0703125 18.08789062 C11.18085938 18.07951172 10.29140625 18.07113281 9.375 18.0625 C8.4778125 18.05798828 7.580625 18.05347656 6.65625 18.04882812 C4.43747169 18.03702611 2.21872757 18.01909039 0 18 C0 12.06 0 6.12 0 0 Z " fill="#F8F9FA" transform="translate(359,726)"/>
<path d="M0 0 C9.24 0 18.48 0 28 0 C28 0.33 28 0.66 28 1 C19.42 1 10.84 1 2 1 C2 21.13 2 41.26 2 62 C5.96 62 9.92 62 14 62 C14 56.72 14 51.44 14 46 C14.33 46 14.66 46 15 46 C15 51.94 15 57.88 15 64 C10.05 64 5.1 64 0 64 C0 42.88 0 21.76 0 0 Z " fill="#263F60" transform="translate(192,713)"/>
<path d="M0 0 C2 1 2 1 3.125 4.0625 C3.41375 5.031875 3.7025 6.00125 4 7 C2.68 7.99 1.36 8.98 0 10 C0 6.7 0 3.4 0 0 Z " fill="#2A4E6E" transform="translate(692,408)"/>
<path d="M0 0 C0.33 0 0.66 0 1 0 C1 1.98 1 3.96 1 6 C0.01 6 -0.98 6 -2 6 C-4.17032476 7.43990623 -4.17032476 7.43990623 -6 9 C-4.47300326 5.56425733 -2.44973747 2.84485642 0 0 Z " fill="#DAE0E8" transform="translate(694,738)"/>
<path d="M0 0 C4.81430721 -0.56638908 7.20307814 1.17438373 11 4 C8 5 8 5 5.95703125 4.22265625 C5.24933594 3.83980469 4.54164063 3.45695313 3.8125 3.0625 C3.09707031 2.68222656 2.38164062 2.30195312 1.64453125 1.91015625 C1.10183594 1.60980469 0.55914062 1.30945313 0 1 C0 0.67 0 0.34 0 0 Z " fill="#B3BDCC" transform="translate(409,562)"/>
</svg>
